<svg xmlns="http://www.w3.org/2000/svg" viewBox="0 0 940 540" font-family="Segoe UI,Helvetica,Arial,sans-serif">
<rect width="940" height="540" rx="14" fill="#0b0f16"/>
<text x="70" y="38" fill="#e6edf3" font-size="24" font-weight="700">Gemma-4-26B-A4B-it-Uncensored (NVFP4)</text>
<text x="70" y="62" fill="#58a6ff" font-size="15" font-weight="600">Up to 4.3× faster decode · 2.5× average vs stock vanilla vLLM</text>
<text x="70" y="84" fill="#8b98a9" font-size="12.5">Single-stream decode (tok/s, c=1) on DGX Spark GB10 / sm_121a &#183; stock vanilla vLLM vs AEON-optimized (DFlash)</text>
<line x1="70" y1="420.0" x2="910" y2="420.0" stroke="#1e2733" stroke-width="1"/>
<text x="62" y="424.0" fill="#8b98a9" font-size="11" text-anchor="end">0</text>
<line x1="70" y1="342.5" x2="910" y2="342.5" stroke="#1e2733" stroke-width="1"/>
<text x="62" y="346.5" fill="#8b98a9" font-size="11" text-anchor="end">59</text>
<line x1="70" y1="265.0" x2="910" y2="265.0" stroke="#1e2733" stroke-width="1"/>
<text x="62" y="269.0" fill="#8b98a9" font-size="11" text-anchor="end">119</text>
<line x1="70" y1="187.5" x2="910" y2="187.5" stroke="#1e2733" stroke-width="1"/>
<text x="62" y="191.5" fill="#8b98a9" font-size="11" text-anchor="end">179</text>
<line x1="70" y1="110.0" x2="910" y2="110.0" stroke="#1e2733" stroke-width="1"/>
<text x="62" y="114.0" fill="#8b98a9" font-size="11" text-anchor="end">238</text>
<rect x="95.0" y="356.2" width="42.0" height="63.8" rx="3" fill="#e5534b"/>
<rect x="143.0" y="217.8" width="42.0" height="202.2" rx="3" fill="#3fb950"/>
<text x="116.0" y="350.2" fill="#e5534b" font-size="11" text-anchor="middle">49</text>
<text x="164.0" y="211.8" fill="#3fb950" font-size="12" font-weight="700" text-anchor="middle">156</text>
<text x="140.0" y="98.0" fill="#e6edf3" font-size="13" font-weight="700" text-anchor="middle">3.2&#215;</text>
<text x="140.0" y="442.0" fill="#8b98a9" font-size="12" text-anchor="middle">Coding</text>
<rect x="235.0" y="356.7" width="42.0" height="63.3" rx="3" fill="#e5534b"/>
<rect x="283.0" y="254.1" width="42.0" height="165.9" rx="3" fill="#3fb950"/>
<text x="256.0" y="350.7" fill="#e5534b" font-size="11" text-anchor="middle">49</text>
<text x="304.0" y="248.1" fill="#3fb950" font-size="12" font-weight="700" text-anchor="middle">128</text>
<text x="280.0" y="98.0" fill="#e6edf3" font-size="13" font-weight="700" text-anchor="middle">2.6&#215;</text>
<text x="280.0" y="442.0" fill="#8b98a9" font-size="12" text-anchor="middle">Math</text>
<rect x="375.0" y="356.5" width="42.0" height="63.5" rx="3" fill="#e5534b"/>
<rect x="423.0" y="265.7" width="42.0" height="154.3" rx="3" fill="#3fb950"/>
<text x="396.0" y="350.5" fill="#e5534b" font-size="11" text-anchor="middle">49</text>
<text x="444.0" y="259.7" fill="#3fb950" font-size="12" font-weight="700" text-anchor="middle">119</text>
<text x="420.0" y="98.0" fill="#e6edf3" font-size="13" font-weight="700" text-anchor="middle">2.4&#215;</text>
<text x="420.0" y="442.0" fill="#8b98a9" font-size="12" text-anchor="middle">Reasoning</text>
<rect x="515.0" y="356.6" width="42.0" height="63.4" rx="3" fill="#e5534b"/>
<rect x="563.0" y="355.4" width="42.0" height="64.6" rx="3" fill="#3fb950"/>
<text x="536.0" y="350.6" fill="#e5534b" font-size="11" text-anchor="middle">49</text>
<text x="584.0" y="349.4" fill="#3fb950" font-size="12" font-weight="700" text-anchor="middle">50</text>
<text x="560.0" y="98.0" fill="#e6edf3" font-size="13" font-weight="700" text-anchor="middle">1.0&#215;</text>
<text x="560.0" y="442.0" fill="#8b98a9" font-size="12" text-anchor="middle">Prose</text>
<rect x="655.0" y="355.9" width="42.0" height="64.1" rx="3" fill="#e5534b"/>
<rect x="703.0" y="332.6" width="42.0" height="87.4" rx="3" fill="#3fb950"/>
<text x="676.0" y="349.9" fill="#e5534b" font-size="11" text-anchor="middle">49</text>
<text x="724.0" y="326.6" fill="#3fb950" font-size="12" font-weight="700" text-anchor="middle">67</text>
<text x="700.0" y="98.0" fill="#e6edf3" font-size="13" font-weight="700" text-anchor="middle">1.4&#215;</text>
<text x="700.0" y="442.0" fill="#8b98a9" font-size="12" text-anchor="middle">Natural language</text>
<rect x="795.0" y="358.6" width="42.0" height="61.4" rx="3" fill="#e5534b"/>
<rect x="843.0" y="157.3" width="42.0" height="262.7" rx="3" fill="#3fb950"/>
<text x="816.0" y="352.6" fill="#e5534b" font-size="11" text-anchor="middle">47</text>
<text x="864.0" y="151.3" fill="#3fb950" font-size="12" font-weight="700" text-anchor="middle">202</text>
<text x="840.0" y="98.0" fill="#e6edf3" font-size="13" font-weight="700" text-anchor="middle">4.3&#215;</text>
<text x="840.0" y="442.0" fill="#8b98a9" font-size="12" text-anchor="middle">Extraction/JSON</text>
<rect x="70" y="494" width="14" height="14" rx="3" fill="#e5534b"/><text x="90" y="506" fill="#e6edf3" font-size="12.5">Stock vanilla vLLM (no DFlash, no opts)</text>
<rect x="370" y="494" width="14" height="14" rx="3" fill="#3fb950"/><text x="390" y="506" fill="#e6edf3" font-size="12.5">AEON aeon-vllm-ultimate:latest (DFlash)</text>
<text x="910" y="524" fill="#8b98a9" font-size="10" text-anchor="end">&#215; = speedup &#183; stock provisional, pending vanilla re-benchmark</text>
</svg>