<svg xmlns="http://www.w3.org/2000/svg" viewBox="0 0 940 540" font-family="Segoe UI,Helvetica,Arial,sans-serif">
<rect width="940" height="540" rx="14" fill="#0b0f16"/>
<text x="80" y="38" fill="#e6edf3" font-size="24" font-weight="700">Qwen3.6-27B-AEON-Ultimate (NVFP4 MTP-XS)</text>
<text x="80" y="62" fill="#58a6ff" font-size="15" font-weight="600">Single-stream decode holds at long (agentic) context &#183; DFlash acceptance stays high</text>
<text x="80" y="84" fill="#8b98a9" font-size="12.5">Decode tok/s at c=1 vs prompt context (short / ~16k / ~32k) &#183; agentic categories &#183; aeon-vllm-ultimate:latest</text>
<line x1="80" y1="470.0" x2="770" y2="470.0" stroke="#1e2733" stroke-width="1"/>
<text x="72" y="474.0" fill="#8b98a9" font-size="11" text-anchor="end">0</text>
<line x1="80" y1="377.5" x2="770" y2="377.5" stroke="#1e2733" stroke-width="1"/>
<text x="72" y="381.5" fill="#8b98a9" font-size="11" text-anchor="end">16</text>
<line x1="80" y1="285.0" x2="770" y2="285.0" stroke="#1e2733" stroke-width="1"/>
<text x="72" y="289.0" fill="#8b98a9" font-size="11" text-anchor="end">32</text>
<line x1="80" y1="192.5" x2="770" y2="192.5" stroke="#1e2733" stroke-width="1"/>
<text x="72" y="196.5" fill="#8b98a9" font-size="11" text-anchor="end">48</text>
<line x1="80" y1="100.0" x2="770" y2="100.0" stroke="#1e2733" stroke-width="1"/>
<text x="72" y="104.0" fill="#8b98a9" font-size="11" text-anchor="end">64</text>
<text x="80.0" y="494.0" fill="#8b98a9" font-size="12.5" text-anchor="middle">~1k</text>
<text x="425.0" y="494.0" fill="#8b98a9" font-size="12.5" text-anchor="middle">~16k</text>
<text x="770.0" y="494.0" fill="#8b98a9" font-size="12.5" text-anchor="middle">~32k</text>
<polyline points="80.0,230.3 425.0,174.1 770.0,295.7" fill="none" stroke="#3fb950" stroke-width="2.5"/>
<circle cx="80.0" cy="230.3" r="3.5" fill="#3fb950"/>
<text x="80.0" y="221.3" fill="#3fb950" font-size="11" font-weight="600" text-anchor="middle">42</text>
<circle cx="425.0" cy="174.1" r="3.5" fill="#3fb950"/>
<text x="425.0" y="165.1" fill="#3fb950" font-size="11" font-weight="600" text-anchor="middle">52</text>
<circle cx="770.0" cy="295.7" r="3.5" fill="#3fb950"/>
<text x="770.0" y="286.7" fill="#3fb950" font-size="11" font-weight="600" text-anchor="middle">30</text>
<text x="782" y="104.0" fill="#3fb950" font-size="12.5">Coding</text>
<polyline points="80.0,148.3 425.0,279.6 770.0,310.6" fill="none" stroke="#bc8cff" stroke-width="2.5"/>
<circle cx="80.0" cy="148.3" r="3.5" fill="#bc8cff"/>
<text x="80.0" y="139.3" fill="#bc8cff" font-size="11" font-weight="600" text-anchor="middle">56</text>
<circle cx="425.0" cy="279.6" r="3.5" fill="#bc8cff"/>
<text x="425.0" y="270.6" fill="#bc8cff" font-size="11" font-weight="600" text-anchor="middle">33</text>
<circle cx="770.0" cy="310.6" r="3.5" fill="#bc8cff"/>
<text x="770.0" y="301.6" fill="#bc8cff" font-size="11" font-weight="600" text-anchor="middle">28</text>
<text x="782" y="126.0" fill="#bc8cff" font-size="12.5">Reasoning</text>
<polyline points="80.0,216.5 425.0,222.8 770.0,248.1" fill="none" stroke="#e3b341" stroke-width="2.5"/>
<circle cx="80.0" cy="216.5" r="3.5" fill="#e3b341"/>
<text x="80.0" y="207.5" fill="#e3b341" font-size="11" font-weight="600" text-anchor="middle">44</text>
<circle cx="425.0" cy="222.8" r="3.5" fill="#e3b341"/>
<text x="425.0" y="213.8" fill="#e3b341" font-size="11" font-weight="600" text-anchor="middle">43</text>
<circle cx="770.0" cy="248.1" r="3.5" fill="#e3b341"/>
<text x="770.0" y="239.1" fill="#e3b341" font-size="11" font-weight="600" text-anchor="middle">39</text>
<text x="782" y="148.0" fill="#e3b341" font-size="12.5">Extraction/JSON</text>
<text x="770" y="524" fill="#8b98a9" font-size="10" text-anchor="end">c=1 (single long-running agent) &#183; higher concurrency at long ctx is prefill/KV-bound</text>
</svg>