<svg xmlns="http://www.w3.org/2000/svg" viewBox="0 0 940 540" font-family="Segoe UI,Helvetica,Arial,sans-serif">
<rect width="940" height="540" rx="14" fill="#0b0f16"/>
<text x="80" y="38" fill="#e6edf3" font-size="24" font-weight="700">Qwen3.6-35B-A3B-heretic (NVFP4)</text>
<text x="80" y="62" fill="#58a6ff" font-size="15" font-weight="600">Single-stream decode holds at long (agentic) context &#183; DFlash acceptance stays high</text>
<text x="80" y="84" fill="#8b98a9" font-size="12.5">Decode tok/s at c=1 vs prompt context (short / ~16k / ~32k) &#183; agentic categories &#183; aeon-vllm-ultimate:latest</text>
<line x1="80" y1="470.0" x2="770" y2="470.0" stroke="#1e2733" stroke-width="1"/>
<text x="72" y="474.0" fill="#8b98a9" font-size="11" text-anchor="end">0</text>
<line x1="80" y1="377.5" x2="770" y2="377.5" stroke="#1e2733" stroke-width="1"/>
<text x="72" y="381.5" fill="#8b98a9" font-size="11" text-anchor="end">34</text>
<line x1="80" y1="285.0" x2="770" y2="285.0" stroke="#1e2733" stroke-width="1"/>
<text x="72" y="289.0" fill="#8b98a9" font-size="11" text-anchor="end">69</text>
<line x1="80" y1="192.5" x2="770" y2="192.5" stroke="#1e2733" stroke-width="1"/>
<text x="72" y="196.5" fill="#8b98a9" font-size="11" text-anchor="end">104</text>
<line x1="80" y1="100.0" x2="770" y2="100.0" stroke="#1e2733" stroke-width="1"/>
<text x="72" y="104.0" fill="#8b98a9" font-size="11" text-anchor="end">138</text>
<text x="80.0" y="494.0" fill="#8b98a9" font-size="12.5" text-anchor="middle">~1k</text>
<text x="425.0" y="494.0" fill="#8b98a9" font-size="12.5" text-anchor="middle">~16k</text>
<text x="770.0" y="494.0" fill="#8b98a9" font-size="12.5" text-anchor="middle">~32k</text>
<polyline points="80.0,225.4 425.0,227.8 770.0,258.4" fill="none" stroke="#3fb950" stroke-width="2.5"/>
<circle cx="80.0" cy="225.4" r="3.5" fill="#3fb950"/>
<text x="80.0" y="216.4" fill="#3fb950" font-size="11" font-weight="600" text-anchor="middle">92</text>
<circle cx="425.0" cy="227.8" r="3.5" fill="#3fb950"/>
<text x="425.0" y="218.8" fill="#3fb950" font-size="11" font-weight="600" text-anchor="middle">91</text>
<circle cx="770.0" cy="258.4" r="3.5" fill="#3fb950"/>
<text x="770.0" y="249.4" fill="#3fb950" font-size="11" font-weight="600" text-anchor="middle">79</text>
<text x="782" y="104.0" fill="#3fb950" font-size="12.5">Coding</text>
<polyline points="80.0,148.3 425.0,214.2 770.0,275.2" fill="none" stroke="#bc8cff" stroke-width="2.5"/>
<circle cx="80.0" cy="148.3" r="3.5" fill="#bc8cff"/>
<text x="80.0" y="139.3" fill="#bc8cff" font-size="11" font-weight="600" text-anchor="middle">121</text>
<circle cx="425.0" cy="214.2" r="3.5" fill="#bc8cff"/>
<text x="425.0" y="205.2" fill="#bc8cff" font-size="11" font-weight="600" text-anchor="middle">96</text>
<circle cx="770.0" cy="275.2" r="3.5" fill="#bc8cff"/>
<text x="770.0" y="266.2" fill="#bc8cff" font-size="11" font-weight="600" text-anchor="middle">73</text>
<text x="782" y="126.0" fill="#bc8cff" font-size="12.5">Reasoning</text>
<polyline points="80.0,257.1 425.0,186.9 770.0,218.2" fill="none" stroke="#e3b341" stroke-width="2.5"/>
<circle cx="80.0" cy="257.1" r="3.5" fill="#e3b341"/>
<text x="80.0" y="248.1" fill="#e3b341" font-size="11" font-weight="600" text-anchor="middle">80</text>
<circle cx="425.0" cy="186.9" r="3.5" fill="#e3b341"/>
<text x="425.0" y="177.9" fill="#e3b341" font-size="11" font-weight="600" text-anchor="middle">106</text>
<circle cx="770.0" cy="218.2" r="3.5" fill="#e3b341"/>
<text x="770.0" y="209.2" fill="#e3b341" font-size="11" font-weight="600" text-anchor="middle">94</text>
<text x="782" y="148.0" fill="#e3b341" font-size="12.5">Extraction/JSON</text>
<text x="770" y="524" fill="#8b98a9" font-size="10" text-anchor="end">c=1 (single long-running agent) &#183; higher concurrency at long ctx is prefill/KV-bound</text>
</svg>